<?xml version="1.0" encoding="UTF-8" standalone="no"?>
<!DOCTYPE svg PUBLIC "-//W3C//DTD SVG 1.1//EN"
 "http://www.w3.org/Graphics/SVG/1.1/DTD/svg11.dtd">
<!-- Generated by graphviz version 9.0.0 (20230911.1827)
 -->
<!-- Pages: 1 -->
<svg width="1120pt" height="332pt"
 viewBox="0.00 0.00 1119.88 332.00" xmlns="http://www.w3.org/2000/svg" xmlns:xlink="http://www.w3.org/1999/xlink">
<g id="graph0" class="graph" transform="scale(1 1) rotate(0) translate(4 328)">
<polygon fill="white" stroke="none" points="-4,4 -4,-328 1115.88,-328 1115.88,4 -4,4"/>
<!-- [root] aws_eip.lb (expand) -->
<g id="node1" class="node">
<title>[root] aws_eip.lb (expand)</title>
<polygon fill="none" stroke="black" points="414.25,-180 339.75,-180 339.75,-144 414.25,-144 414.25,-180"/>
<text text-anchor="middle" x="377" y="-156.95" font-family="Times,serif" font-size="14.00">aws_eip.lb</text>
</g>
<!-- [root] provider[&quot;registry.terraform.io/hashicorp/aws&quot;] -->
<g id="node6" class="node">
<title>[root] provider[&quot;registry.terraform.io/hashicorp/aws&quot;]</title>
<polygon fill="none" stroke="black" points="589,-36 324.57,-18 589,0 853.43,-18 589,-36"/>
<text text-anchor="middle" x="589" y="-12.95" font-family="Times,serif" font-size="14.00">provider[&quot;registry.terraform.io/hashicorp/aws&quot;]</text>
</g>
<!-- [root] aws_eip.lb (expand)&#45;&gt;[root] provider[&quot;registry.terraform.io/hashicorp/aws&quot;] -->
<g id="edge1" class="edge">
<title>[root] aws_eip.lb (expand)&#45;&gt;[root] provider[&quot;registry.terraform.io/hashicorp/aws&quot;]</title>
<path fill="none" stroke="black" d="M364.86,-143.74C352.83,-124.31 338.41,-92.77 355,-72 370.74,-52.29 423.96,-39.37 475.68,-31.22"/>
<polygon fill="black" stroke="black" points="476.16,-34.69 485.53,-29.73 475.12,-27.77 476.16,-34.69"/>
</g>
<!-- [root] aws_elb.bar (expand) -->
<g id="node2" class="node">
<title>[root] aws_elb.bar (expand)</title>
<polygon fill="none" stroke="black" points="639.62,-180 558.38,-180 558.38,-144 639.62,-144 639.62,-180"/>
<text text-anchor="middle" x="599" y="-156.95" font-family="Times,serif" font-size="14.00">aws_elb.bar</text>
</g>
<!-- [root] aws_elb.bar (expand)&#45;&gt;[root] provider[&quot;registry.terraform.io/hashicorp/aws&quot;] -->
<g id="edge2" class="edge">
<title>[root] aws_elb.bar (expand)&#45;&gt;[root] provider[&quot;registry.terraform.io/hashicorp/aws&quot;]</title>
<path fill="none" stroke="black" d="M558.28,-157.59C498.67,-151.66 392.22,-137.18 369,-108 334.31,-64.41 397.65,-42.03 465.13,-30.63"/>
<polygon fill="black" stroke="black" points="465.61,-34.1 474.93,-29.06 464.51,-27.18 465.61,-34.1"/>
</g>
<!-- [root] var.elb_availability_zones -->
<g id="node8" class="node">
<title>[root] var.elb_availability_zones</title>
<polygon fill="none" stroke="black" points="529.88,-108 378.12,-108 378.12,-72 535.88,-72 535.88,-102 529.88,-108"/>
<polyline fill="none" stroke="black" points="529.88,-108 529.88,-102"/>
<polyline fill="none" stroke="black" points="535.88,-102 529.88,-102"/>
<text text-anchor="middle" x="457" y="-84.95" font-family="Times,serif" font-size="14.00">var.elb_availability_zones</text>
</g>
<!-- [root] aws_elb.bar (expand)&#45;&gt;[root] var.elb_availability_zones -->
<g id="edge3" class="edge">
<title>[root] aws_elb.bar (expand)&#45;&gt;[root] var.elb_availability_zones</title>
<path fill="none" stroke="black" d="M563.53,-143.52C544.93,-134.34 521.93,-123.01 502.07,-113.22"/>
<polygon fill="black" stroke="black" points="503.89,-110.21 493.37,-108.93 500.79,-116.49 503.89,-110.21"/>
</g>
<!-- [root] var.elb_name -->
<g id="node9" class="node">
<title>[root] var.elb_name</title>
<polygon fill="none" stroke="black" points="637.75,-108 554.25,-108 554.25,-72 643.75,-72 643.75,-102 637.75,-108"/>
<polyline fill="none" stroke="black" points="637.75,-108 637.75,-102"/>
<polyline fill="none" stroke="black" points="643.75,-102 637.75,-102"/>
<text text-anchor="middle" x="599" y="-84.95" font-family="Times,serif" font-size="14.00">var.elb_name</text>
</g>
<!-- [root] aws_elb.bar (expand)&#45;&gt;[root] var.elb_name -->
<g id="edge4" class="edge">
<title>[root] aws_elb.bar (expand)&#45;&gt;[root] var.elb_name</title>
<path fill="none" stroke="black" d="M599,-143.7C599,-136.41 599,-127.73 599,-119.54"/>
<polygon fill="black" stroke="black" points="602.5,-119.62 599,-109.62 595.5,-119.62 602.5,-119.62"/>
</g>
<!-- [root] var.timeout -->
<g id="node11" class="node">
<title>[root] var.timeout</title>
<polygon fill="none" stroke="black" points="734.12,-108 661.88,-108 661.88,-72 740.12,-72 740.12,-102 734.12,-108"/>
<polyline fill="none" stroke="black" points="734.12,-108 734.12,-102"/>
<polyline fill="none" stroke="black" points="740.12,-102 734.12,-102"/>
<text text-anchor="middle" x="701" y="-84.95" font-family="Times,serif" font-size="14.00">var.timeout</text>
</g>
<!-- [root] aws_elb.bar (expand)&#45;&gt;[root] var.timeout -->
<g id="edge5" class="edge">
<title>[root] aws_elb.bar (expand)&#45;&gt;[root] var.timeout</title>
<path fill="none" stroke="black" d="M624.48,-143.52C637.23,-134.76 652.85,-124.04 666.65,-114.58"/>
<polygon fill="black" stroke="black" points="668.34,-117.66 674.6,-109.12 664.38,-111.89 668.34,-117.66"/>
</g>
<!-- [root] aws_instance.myec2 (expand) -->
<g id="node3" class="node">
<title>[root] aws_instance.myec2 (expand)</title>
<polygon fill="none" stroke="black" points="893.25,-180 764.75,-180 764.75,-144 893.25,-144 893.25,-180"/>
<text text-anchor="middle" x="829" y="-156.95" font-family="Times,serif" font-size="14.00">aws_instance.myec2</text>
</g>
<!-- [root] data.aws_ami.app_ami (expand) -->
<g id="node5" class="node">
<title>[root] data.aws_ami.app_ami (expand)</title>
<polygon fill="none" stroke="black" points="900,-108 758,-108 758,-72 900,-72 900,-108"/>
<text text-anchor="middle" x="829" y="-84.95" font-family="Times,serif" font-size="14.00">data.aws_ami.app_ami</text>
</g>
<!-- [root] aws_instance.myec2 (expand)&#45;&gt;[root] data.aws_ami.app_ami (expand) -->
<g id="edge6" class="edge">
<title>[root] aws_instance.myec2 (expand)&#45;&gt;[root] data.aws_ami.app_ami (expand)</title>
<path fill="none" stroke="black" d="M829,-143.7C829,-136.41 829,-127.73 829,-119.54"/>
<polygon fill="black" stroke="black" points="832.5,-119.62 829,-109.62 825.5,-119.62 832.5,-119.62"/>
</g>
<!-- [root] var.types -->
<g id="node12" class="node">
<title>[root] var.types</title>
<polygon fill="none" stroke="black" points="976.38,-108 917.62,-108 917.62,-72 982.38,-72 982.38,-102 976.38,-108"/>
<polyline fill="none" stroke="black" points="976.38,-108 976.38,-102"/>
<polyline fill="none" stroke="black" points="982.38,-102 976.38,-102"/>
<text text-anchor="middle" x="950" y="-84.95" font-family="Times,serif" font-size="14.00">var.types</text>
</g>
<!-- [root] aws_instance.myec2 (expand)&#45;&gt;[root] var.types -->
<g id="edge7" class="edge">
<title>[root] aws_instance.myec2 (expand)&#45;&gt;[root] var.types</title>
<path fill="none" stroke="black" d="M859.22,-143.52C874.79,-134.51 893.95,-123.42 910.66,-113.76"/>
<polygon fill="black" stroke="black" points="911.95,-117.06 918.85,-109.02 908.45,-111 911.95,-117.06"/>
</g>
<!-- [root] aws_security_group.allow_tls (expand) -->
<g id="node4" class="node">
<title>[root] aws_security_group.allow_tls (expand)</title>
<polygon fill="none" stroke="black" points="1099,-180 921,-180 921,-144 1099,-144 1099,-180"/>
<text text-anchor="middle" x="1010" y="-156.95" font-family="Times,serif" font-size="14.00">aws_security_group.allow_tls</text>
</g>
<!-- [root] aws_security_group.allow_tls (expand)&#45;&gt;[root] provider[&quot;registry.terraform.io/hashicorp/aws&quot;] -->
<g id="edge8" class="edge">
<title>[root] aws_security_group.allow_tls (expand)&#45;&gt;[root] provider[&quot;registry.terraform.io/hashicorp/aws&quot;]</title>
<path fill="none" stroke="black" d="M1011.69,-143.79C1012.63,-123.49 1010.73,-90.23 991,-72 960.97,-44.26 875.42,-30.78 790.93,-24.33"/>
<polygon fill="black" stroke="black" points="791.29,-20.85 781.07,-23.62 790.79,-27.83 791.29,-20.85"/>
</g>
<!-- [root] var.vpn_ip -->
<g id="node13" class="node">
<title>[root] var.vpn_ip</title>
<polygon fill="none" stroke="black" points="1105.88,-108 1038.12,-108 1038.12,-72 1111.88,-72 1111.88,-102 1105.88,-108"/>
<polyline fill="none" stroke="black" points="1105.88,-108 1105.88,-102"/>
<polyline fill="none" stroke="black" points="1111.88,-102 1105.88,-102"/>
<text text-anchor="middle" x="1075" y="-84.95" font-family="Times,serif" font-size="14.00">var.vpn_ip</text>
</g>
<!-- [root] aws_security_group.allow_tls (expand)&#45;&gt;[root] var.vpn_ip -->
<g id="edge9" class="edge">
<title>[root] aws_security_group.allow_tls (expand)&#45;&gt;[root] var.vpn_ip</title>
<path fill="none" stroke="black" d="M1026.07,-143.7C1033.7,-135.47 1042.98,-125.48 1051.4,-116.42"/>
<polygon fill="black" stroke="black" points="1053.85,-118.92 1058.09,-109.21 1048.72,-114.16 1053.85,-118.92"/>
</g>
<!-- [root] data.aws_ami.app_ami (expand)&#45;&gt;[root] provider[&quot;registry.terraform.io/hashicorp/aws&quot;] -->
<g id="edge10" class="edge">
<title>[root] data.aws_ami.app_ami (expand)&#45;&gt;[root] provider[&quot;registry.terraform.io/hashicorp/aws&quot;]</title>
<path fill="none" stroke="black" d="M769.06,-71.52C732.03,-60.72 684.73,-46.92 647.9,-36.18"/>
<polygon fill="black" stroke="black" points="649.35,-32.96 638.77,-33.52 647.39,-39.68 649.35,-32.96"/>
</g>
<!-- [root] var.architecture -->
<g id="node7" class="node">
<title>[root] var.architecture</title>
<polygon fill="none" stroke="black" points="94,-252 0,-252 0,-216 100,-216 100,-246 94,-252"/>
<polyline fill="none" stroke="black" points="94,-252 94,-246"/>
<polyline fill="none" stroke="black" points="100,-246 94,-246"/>
<text text-anchor="middle" x="50" y="-228.95" font-family="Times,serif" font-size="14.00">var.architecture</text>
</g>
<!-- [root] var.instance_type -->
<g id="node10" class="node">
<title>[root] var.instance_type</title>
<polygon fill="none" stroke="black" points="222.25,-252 117.75,-252 117.75,-216 228.25,-216 228.25,-246 222.25,-252"/>
<polyline fill="none" stroke="black" points="222.25,-252 222.25,-246"/>
<polyline fill="none" stroke="black" points="228.25,-246 222.25,-246"/>
<text text-anchor="middle" x="173" y="-228.95" font-family="Times,serif" font-size="14.00">var.instance_type</text>
</g>
<!-- [root] output.public_ip (expand) -->
<g id="node14" class="node">
<title>[root] output.public_ip (expand)</title>
<ellipse fill="none" stroke="black" cx="377" cy="-234" rx="130.68" ry="18"/>
<text text-anchor="middle" x="377" y="-228.95" font-family="Times,serif" font-size="14.00">[root] output.public_ip (expand)</text>
</g>
<!-- [root] output.public_ip (expand)&#45;&gt;[root] aws_eip.lb (expand) -->
<g id="edge11" class="edge">
<title>[root] output.public_ip (expand)&#45;&gt;[root] aws_eip.lb (expand)</title>
<path fill="none" stroke="black" d="M377,-215.7C377,-208.41 377,-199.73 377,-191.54"/>
<polygon fill="black" stroke="black" points="380.5,-191.62 377,-181.62 373.5,-191.62 380.5,-191.62"/>
</g>
<!-- [root] provider[&quot;registry.terraform.io/hashicorp/aws&quot;] (close) -->
<g id="node15" class="node">
<title>[root] provider[&quot;registry.terraform.io/hashicorp/aws&quot;] (close)</title>
<ellipse fill="none" stroke="black" cx="764" cy="-234" rx="238.16" ry="18"/>
<text text-anchor="middle" x="764" y="-228.95" font-family="Times,serif" font-size="14.00">[root] provider[&quot;registry.terraform.io/hashicorp/aws&quot;] (close)</text>
</g>
<!-- [root] provider[&quot;registry.terraform.io/hashicorp/aws&quot;] (close)&#45;&gt;[root] aws_eip.lb (expand) -->
<g id="edge12" class="edge">
<title>[root] provider[&quot;registry.terraform.io/hashicorp/aws&quot;] (close)&#45;&gt;[root] aws_eip.lb (expand)</title>
<path fill="none" stroke="black" d="M674.73,-216.85C597.19,-202.83 487.81,-183.04 425.5,-171.77"/>
<polygon fill="black" stroke="black" points="426.38,-168.37 415.91,-170.04 425.13,-175.26 426.38,-168.37"/>
</g>
<!-- [root] provider[&quot;registry.terraform.io/hashicorp/aws&quot;] (close)&#45;&gt;[root] aws_elb.bar (expand) -->
<g id="edge13" class="edge">
<title>[root] provider[&quot;registry.terraform.io/hashicorp/aws&quot;] (close)&#45;&gt;[root] aws_elb.bar (expand)</title>
<path fill="none" stroke="black" d="M723.64,-215.88C701.63,-206.54 674.15,-194.88 650.6,-184.89"/>
<polygon fill="black" stroke="black" points="652.06,-181.71 641.49,-181.02 649.33,-188.15 652.06,-181.71"/>
</g>
<!-- [root] provider[&quot;registry.terraform.io/hashicorp/aws&quot;] (close)&#45;&gt;[root] aws_instance.myec2 (expand) -->
<g id="edge14" class="edge">
<title>[root] provider[&quot;registry.terraform.io/hashicorp/aws&quot;] (close)&#45;&gt;[root] aws_instance.myec2 (expand)</title>
<path fill="none" stroke="black" d="M780.07,-215.7C787.7,-207.47 796.98,-197.48 805.4,-188.42"/>
<polygon fill="black" stroke="black" points="807.85,-190.92 812.09,-181.21 802.72,-186.16 807.85,-190.92"/>
</g>
<!-- [root] provider[&quot;registry.terraform.io/hashicorp/aws&quot;] (close)&#45;&gt;[root] aws_security_group.allow_tls (expand) -->
<g id="edge15" class="edge">
<title>[root] provider[&quot;registry.terraform.io/hashicorp/aws&quot;] (close)&#45;&gt;[root] aws_security_group.allow_tls (expand)</title>
<path fill="none" stroke="black" d="M823.24,-216.14C857.64,-206.36 901.24,-193.95 937.65,-183.59"/>
<polygon fill="black" stroke="black" points="938.59,-186.96 947.25,-180.85 936.68,-180.23 938.59,-186.96"/>
</g>
<!-- [root] root -->
<g id="node16" class="node">
<title>[root] root</title>
<ellipse fill="none" stroke="black" cx="275" cy="-306" rx="49.3" ry="18"/>
<text text-anchor="middle" x="275" y="-300.95" font-family="Times,serif" font-size="14.00">[root] root</text>
</g>
<!-- [root] root&#45;&gt;[root] var.architecture -->
<g id="edge18" class="edge">
<title>[root] root&#45;&gt;[root] var.architecture</title>
<path fill="none" stroke="black" d="M238.35,-293.6C203.9,-282.88 151.69,-266.64 110.97,-253.97"/>
<polygon fill="black" stroke="black" points="112.12,-250.66 101.53,-251.03 110.04,-257.34 112.12,-250.66"/>
</g>
<!-- [root] root&#45;&gt;[root] var.instance_type -->
<g id="edge19" class="edge">
<title>[root] root&#45;&gt;[root] var.instance_type</title>
<path fill="none" stroke="black" d="M252.62,-289.64C239.43,-280.59 222.48,-268.96 207.61,-258.75"/>
<polygon fill="black" stroke="black" points="209.67,-255.92 199.45,-253.15 205.71,-261.69 209.67,-255.92"/>
</g>
<!-- [root] root&#45;&gt;[root] output.public_ip (expand) -->
<g id="edge16" class="edge">
<title>[root] root&#45;&gt;[root] output.public_ip (expand)</title>
<path fill="none" stroke="black" d="M297.38,-289.64C310.66,-280.53 327.76,-268.79 342.71,-258.53"/>
<polygon fill="black" stroke="black" points="344.65,-261.44 350.92,-252.9 340.69,-255.67 344.65,-261.44"/>
</g>
<!-- [root] root&#45;&gt;[root] provider[&quot;registry.terraform.io/hashicorp/aws&quot;] (close) -->
<g id="edge17" class="edge">
<title>[root] root&#45;&gt;[root] provider[&quot;registry.terraform.io/hashicorp/aws&quot;] (close)</title>
<path fill="none" stroke="black" d="M320.13,-298.54C393.24,-288.07 539.95,-267.07 644.69,-252.08"/>
<polygon fill="black" stroke="black" points="645.07,-255.56 654.47,-250.68 644.07,-248.63 645.07,-255.56"/>
</g>
</g>
</svg>
